<!DOCTYPE svg PUBLIC "-//W3C//DTD SVG 1.1//EN" "http://www.w3.org/Graphics/SVG/1.1/DTD/svg11.dtd">
<!-- Uploaded to: SVG Repo, www.svgrepo.com, Transformed by: SVG Repo Mixer Tools -->
<svg width="102px" height="102px" viewBox="-3.6 -3.6 31.20 31.20" fill="none" xmlns="http://www.w3.org/2000/svg" transform="rotate(0)matrix(1, 0, 0, 1, 0, 0)">
<g id="SVGRepo_bgCarrier" stroke-width="0">
<path transform="translate(-3.6, -3.6), scale(0.9750000000000001)" d="M16,28.641175424414023C18.909332781201616,28.71495056512778,21.372947526706398,26.913858503150312,23.755690611871007,25.24287214974646C26.41234621209312,23.379794555982976,29.696802859129505,21.70663249719636,30.40402967542102,18.53981906270212C31.121283158350984,15.328108316790388,28.972016749357664,12.309852274932608,27.273401901451937,9.491298377513889C25.612418172025453,6.735186731665426,23.921043176708736,3.6345876063481204,20.847312042594776,2.6821196179203994C17.833208327098358,1.7481285895740153,14.93107823574831,3.860359712159609,11.896777623961757,4.726489174833983C8.50281898293189,5.695281641432554,4.146191257644949,5.091036020801419,2.167961131757579,8.014068635978862C0.1746388734885187,10.959401384293987,1.4141992229945977,15.024567771965238,2.6773283001724124,18.349146475800705C3.7488702172494386,21.169464289828678,6.179923349292235,23.013290346850468,8.567483589623095,24.85772813408209C10.835896180646289,26.61012199172791,13.134463439716662,28.568510872486073,16,28.641175424414023" fill="#229EDA" strokewidth="0"/>
</g>
<g id="SVGRepo_tracerCarrier" stroke-linecap="round" stroke-linejoin="round"/>
<g id="SVGRepo_iconCarrier"> <g id="Menu / Menu_Alt_05"> <path id="Vector" d="M5 17H13M5 12H19M11 7H19" stroke="#ffffff" stroke-width="2" stroke-linecap="round" stroke-linejoin="round"/> </g> </g>
</svg>